<svg xmlns="http://www.w3.org/2000/svg" width="28" height="28" viewBox="0 0 28 28">
    <g fill="none" fill-rule="nonzero">
        <path fill="gray" d="M26.425 0H1.555C.694 0 0 .696 0 1.556v24.888C0 27.304.696 28 1.554 28h13.392V17.173h-3.634v-4.239h3.634v-3.11c0-3.617 2.207-5.589 5.44-5.589a30.079 30.079 0 0 1 3.256.167v3.765h-2.23c-1.753 0-2.095.836-2.095 2.06v2.7h4.193l-.544 4.239h-3.649V28h7.108c.858 0 1.554-.696 1.554-1.556V1.556C27.98.696 27.283 0 26.425 0z"/>
        <path fill="#FFF" d="M19.317 28V17.173h3.65l.543-4.239h-4.193v-2.698c0-1.225.342-2.062 2.095-2.062h2.223v-3.78a30.079 30.079 0 0 0-3.257-.167c-3.225 0-5.44 1.972-5.44 5.589v3.11h-3.626v4.24h3.634V28h4.371z"/>
    </g>
</svg>
