<?xml version="1.0" encoding="UTF-8"?>
<svg xmlns="http://www.w3.org/2000/svg" xmlns:xlink="http://www.w3.org/1999/xlink" width="46pt" height="46pt" viewBox="0 0 46 46" version="1.1">
<g id="surface1">
<path style="fill:none;stroke-width:3;stroke-linecap:round;stroke-linejoin:round;stroke:rgb(50.196078%,50.196078%,50.196078%);stroke-opacity:1;stroke-miterlimit:4;" d="M 37.321671 29.663723 C 37.321671 33.892663 33.892663 37.321671 29.663723 37.321671 C 25.429688 37.321671 22.000679 33.892663 22.000679 29.663723 C 22.000679 25.429688 25.429688 22.000679 29.663723 22.000679 C 33.892663 22.000679 37.321671 25.429688 37.321671 29.663723 Z M 37.321671 29.663723 " transform="matrix(0.766667,0,0,0.766667,0,0)"/>
<path style="fill:none;stroke-width:3;stroke-linecap:round;stroke-linejoin:round;stroke:rgb(50.196078%,50.196078%,50.196078%);stroke-opacity:1;stroke-miterlimit:4;" d="M 48.994565 37.754755 C 48.296535 39.329144 48.632812 41.173573 49.835258 42.401495 L 49.988111 42.559443 C 51.985394 44.55163 51.985394 47.787024 49.988111 49.784307 C 49.030231 50.742188 47.730978 51.282269 46.375679 51.282269 C 45.02038 51.282269 43.721128 50.742188 42.763247 49.784307 L 42.610394 49.631454 C 41.377378 48.423913 39.538043 48.092731 37.95856 48.785666 C 36.414742 49.44803 35.411005 50.966372 35.40591 52.642663 L 35.40591 53.080842 C 35.40591 55.898438 33.118207 58.186141 30.295516 58.186141 C 27.477921 58.186141 25.190217 55.898438 25.190217 53.080842 L 25.190217 52.846467 C 25.149457 51.119226 24.054008 49.590693 22.433764 48.994565 C 20.85428 48.296535 19.014946 48.632812 17.781929 49.835258 L 17.629076 49.988111 C 16.671196 50.945992 15.371943 51.486073 14.016644 51.486073 C 12.661345 51.486073 11.362092 50.945992 10.404212 49.988111 C 9.441236 49.030231 8.90625 47.730978 8.90625 46.375679 C 8.90625 45.02038 9.441236 43.721128 10.404212 42.763247 L 10.557065 42.610394 C 11.759511 41.377378 12.095788 39.538043 11.397758 37.95856 C 10.735394 36.414742 9.222147 35.411005 7.540761 35.40591 L 7.107677 35.40591 C 4.284986 35.40591 2.002378 33.118207 2.002378 30.295516 C 2.002378 27.477921 4.284986 25.190217 7.107677 25.190217 L 7.336957 25.190217 C 9.069293 25.149457 10.597826 24.054008 11.193954 22.433764 C 11.891984 20.85428 11.555707 19.014946 10.353261 17.781929 L 10.200408 17.629076 C 9.237432 16.671196 8.697351 15.371943 8.697351 14.016644 C 8.697351 12.661345 9.237432 11.362092 10.200408 10.404212 C 11.158288 9.441236 12.457541 8.90625 13.81284 8.90625 C 15.168139 8.90625 16.467391 9.441236 17.425272 10.404212 L 17.578125 10.557065 C 18.811141 11.759511 20.650476 12.095788 22.224864 11.397758 L 22.433764 11.397758 C 23.977582 10.735394 24.981318 9.222147 24.986413 7.540761 L 24.986413 7.107677 C 25.027174 4.315557 27.299592 2.073709 30.091712 2.073709 C 32.888927 2.073709 35.161345 4.315557 35.202106 7.107677 L 35.202106 7.336957 C 35.207201 9.018342 36.210938 10.53159 37.754755 11.193954 C 39.329144 11.886889 41.173573 11.555707 42.401495 10.353261 L 42.559443 10.200408 C 44.55163 8.203125 47.787024 8.203125 49.784307 10.200408 C 50.742188 11.158288 51.282269 12.457541 51.282269 13.81284 C 51.282269 15.168139 50.742188 16.467391 49.784307 17.425272 L 49.631454 17.578125 C 48.423913 18.811141 48.092731 20.650476 48.785666 22.224864 L 48.785666 22.433764 C 49.44803 23.977582 50.966372 24.981318 52.642663 24.986413 L 53.080842 24.986413 C 55.872962 25.027174 58.11481 27.299592 58.11481 30.091712 C 58.11481 32.888927 55.872962 35.161345 53.080842 35.202106 L 52.846467 35.202106 C 51.170177 35.207201 49.656929 36.210938 48.994565 37.754755 Z M 48.994565 37.754755 " transform="matrix(0.766667,0,0,0.766667,0,0)"/>
</g>
</svg>
