<svg xmlns="http://www.w3.org/2000/svg" width="60" height="60" viewBox="0 0 60 60">
    <g fill="gray" fill-rule="nonzero">
        <path d="M59.31 23.606l-.034-.071C56.31 9.881 44.036 0 30 0 13.459 0 0 13.459 0 30a29.955 29.955 0 0 0 7.999 20.396l.375.401 33.776 8.836A11.21 11.21 0 0 0 45 60c5.108 0 9.487-3.352 10.837-8.22l1.8-7.837C59.063 42.919 60 41.258 60 39.375V26.25c0-.96-.263-1.852-.69-2.644zm-6.224 27.482c-.934 4.147-5.444 6.851-9.525 5.786l-33.798-8.84A27.093 27.093 0 0 1 2.904 30c0-14.957 12.172-27.125 27.126-27.125 11.33 0 21.355 7.138 25.288 17.45-.035 0-.066-.012-.1-.012H26.154c-4.275 0-7.75 3.476-7.75 7.75a7.77 7.77 0 0 0 3.231 6.297l9.948 7.141a21.2 21.2 0 0 0 12.427 4h10.35l-1.275 5.587zm4.539-11.178c0 1.12-.913 2.028-2.028 2.028H43.87c-3.841 0-7.52-1.185-10.638-3.423L22.82 31.04a4.068 4.068 0 0 1-1.696-3.297 4.06 4.06 0 0 1 4.056-4.055h30.416c1.115 0 2.028.908 2.028 2.027V39.91z"/>
        <path d="M28.2 26.25h-.037c-1.04 0-1.857.84-1.857 1.875 0 1.035.859 1.875 1.894 1.875a1.876 1.876 0 0 0 0-3.75z"/>
    </g>
</svg>
