<svg xmlns="http://www.w3.org/2000/svg" width="31" height="16" viewBox="0 0 31 16">
    <g fill="gray" fill-rule="evenodd">
        <path d="M27 8l2.003 3L31 8.01zM23.012 12.482c-.03.034-.062.056-.06.075.002.018.042.034.065.05.022-.018.058-.035.06-.054.002-.019-.033-.039-.065-.071zm.023-.402c-.032-.029-.053-.061-.071-.059-.02.002-.036.036-.054.057.018.023.034.058.056.066.013.004.037-.033.069-.064zm-1.32 1.377c-.036-.027-.06-.058-.077-.053-.02.005-.034.043-.051.066.018.02.037.056.055.056.02 0 .039-.035.073-.069zm-16.894-.333c-.042-.027-.066-.052-.092-.056-.01-.002-.04.048-.036.061.009.027.033.06.053.062.018.002.039-.033.075-.067zm16.708.405c-.033.031-.065.049-.07.07-.003.015.031.035.048.053.027-.018.06-.033.076-.055.006-.01-.027-.036-.054-.068zM3.516 12.524c.031-.034.067-.055.065-.073-.003-.02-.038-.051-.061-.053-.021-.002-.062.029-.064.048-.003.02.03.042.06.078zm17.413.88c-.032.032-.067.052-.067.071 0 .019.038.052.058.051.025 0 .062-.028.066-.048.004-.018-.029-.04-.057-.075zm1.85-.525c-.034-.03-.055-.064-.073-.062-.02.002-.051.037-.052.06-.001.021.029.06.047.063.02.002.042-.031.078-.061zm-19.17-1.57c.029-.035.062-.059.056-.074-.009-.02-.047-.035-.072-.052-.019.02-.052.039-.052.058 0 .018.035.036.069.068zm19.554.934c-.036-.026-.06-.059-.077-.054-.02.006-.048.043-.048.066 0 .02.034.056.053.057.02 0 .039-.036.072-.069zm-3.086-.013c-.033.03-.072.053-.068.067.007.022.042.04.065.059.02-.018.056-.034.06-.053.002-.018-.03-.04-.057-.073zm-16.28.486c-.035-.033-.056-.067-.076-.067-.019 0-.052.038-.052.06s.03.06.05.063c.018.004.042-.028.078-.056zm18.558.622c.032.03.052.063.071.063.02-.001.038-.036.057-.056-.018-.024-.034-.06-.056-.067-.015-.005-.039.031-.072.06zm-1.041.272c.028-.036.06-.059.056-.077-.003-.02-.044-.048-.065-.046-.023.002-.058.033-.06.053 0 .018.036.038.069.07zm-.666-.305c-.03-.034-.053-.073-.067-.07-.023.007-.04.041-.06.064.017.021.033.056.052.06.019.002.041-.028.075-.054zm1.555-2.582c.031-.033.068-.056.063-.07-.007-.022-.044-.038-.068-.056-.02.018-.054.036-.056.055-.002.018.03.038.06.07zm-18.32 2.193c-.034-.027-.06-.062-.075-.057-.022.009-.036.045-.054.07.02.02.04.052.06.053.02 0 .039-.035.068-.066zm19.047-.476c.031-.039.063-.061.062-.083 0-.016-.047-.045-.068-.043-.023.003-.054.034-.057.055-.003.017.031.037.063.07zm-.276-1.404c-.038-.03-.06-.062-.082-.062-.016 0-.046.039-.046.06 0 .022.028.063.045.063.022 0 .044-.03.083-.06zm-.152-.272c-.03.032-.063.053-.062.071.002.02.037.037.057.055.024-.018.06-.034.068-.056.005-.015-.033-.038-.063-.07zm-1.36 2.555c-.032.033-.068.052-.067.07.001.02.037.053.058.053.023.001.062-.027.067-.046.004-.018-.03-.041-.058-.077zm.72.294c.03-.033.067-.055.063-.07-.005-.023-.036-.05-.063-.056-.015-.003-.062.03-.062.046 0 .022.032.044.062.08zm.426-2.849c-.03.034-.063.054-.061.073.002.018.037.035.058.053.023-.018.06-.034.067-.056.004-.015-.032-.037-.064-.07zm-2.263 1.676c-.028.035-.06.058-.06.08 0 .017.048.049.064.045.027-.006.057-.035.062-.057.003-.015-.034-.037-.066-.068zm.24.182c-.035-.028-.057-.06-.075-.056-.02.003-.036.038-.053.06.02.022.037.056.06.062.014.004.036-.033.068-.066zM3.54 11.576c-.034-.028-.06-.062-.075-.057-.022.007-.047.04-.053.067-.003.014.035.057.051.055.023-.002.043-.035.077-.065zm16.662 1.199c-.031.03-.066.048-.066.067 0 .02.034.04.053.059.025-.018.061-.032.07-.054.007-.014-.03-.04-.057-.072zm1.81-2.035c-.031-.029-.054-.063-.07-.059-.021.007-.038.041-.057.064.02.021.04.054.062.059.015.003.036-.034.066-.064zm.897 2.018c-.032-.034-.053-.07-.068-.067-.022.006-.04.039-.06.06.015.023.03.063.047.063.021.001.044-.029.08-.056zm-.241-1.45c.031-.027.07-.047.067-.063-.004-.022-.038-.041-.058-.062-.024.019-.06.034-.067.056-.004.015.03.039.058.07zm-10.674-.585c.121-.093.09-.166-.05-.168l.05.168zm9.933 1.381h.061c.091-.066.09-.11-.036-.167l-.025.167zm-5.08-9.45l-.064-.057c-.02.028-.046.054-.06.084-.004.008.026.027.04.042l.085-.068zm-4.634 8.78l-.055.008.076.202.049-.007-.07-.202zm2.76.437c-.03-.03-.054-.064-.06-.059-.026.018-.046.048-.068.074.016.017.034.052.046.048.025-.007.046-.034.082-.063zm-2.517-2.556c-.092-.038-.148-.011-.213.089l.012.02.201-.109zm6.826-2.57c.025.047.042.087.067.121.005.008.05 0 .056-.011.024-.053-.038-.123-.123-.11zm-9.51 5.01c.019.004.037.01.055.015.025-.042.075-.087.07-.124-.01-.053-.088-.055-.115-.023-.024.028-.008.086-.01.131zm10.617.098c.038-.093.096-.161.083-.25-.124.044-.16.138-.083.25zm.682.377l-.042-.25c-.129.063-.102.209.042.25zM16.01 8.921c-.069.071-.071.146-.007.21.096-.08.118-.095.007-.21zm5.62 2.601c.042.07.075.132.116.187.012.017.05.023.07.016.015-.006.028-.042.028-.064 0-.072-.13-.162-.213-.139zm-.262 1.002l.092-.037c-.018-.02-.033-.042-.056-.057a.773.773 0 0 0-.118-.058c-.022-.01-.05-.011-.074-.016-.002.025-.016.06-.002.071.048.038.106.066.158.097zM14.334 7.9l-.016-.027c-.038.011-.094.01-.112.035-.04.054-.06.12-.085.184-.002.006.018.025.03.031.01.004.03 0 .035-.008.05-.07.1-.143.148-.215zm-2.072 1.735l.025-.003c-.015-.033-.02-.076-.046-.097-.06-.05-.092-.036-.157.063-.01.015-.013.053-.008.055.027.012.06.024.088.02.034-.004.066-.024.098-.038zm.63-.38c-.018.08-.036.15-.05.223-.003.02.003.059.011.061.025.008.062.016.079.001.065-.059.04-.23-.04-.284zm4.622-5.57l-.023.016a.34.34 0 0 0 .148.22c.03.023.093.011.142.015l.01-.029-.277-.222zm-3.71 6.026l.019-.02-.19-.058-.024.25.185-.03.01-.142zm5.778 1.465l-.126-.287c-.09.089-.109.158-.063.224.04.057.097.082.189.063zm-9.727-1.21l.38.085c.016-.105-.009-.134-.122-.138-.025 0-.054.002-.075-.009-.092-.049-.143-.001-.183.062zm-6.57.48v-.024c-.087-.048-.176-.091-.26-.145-.066-.042-.088.007-.11.047-.032.054-.006.09.049.102.078.018.156.034.235.044.027.003.057-.015.085-.023zm6.442-.217c.001.014 0 .019.002.02.143.046.286.094.43.137.008.003.035-.03.037-.049.01-.11-.134-.23-.235-.196-.014.005-.03.024-.035.04-.021.066-.066.076-.123.064l-.076-.016zm-.162 1.414l-.35.047c.088.075.156.135.226.192a.06.06 0 0 0 .044.011c.053-.012.105-.028.157-.043l-.077-.207zm11.723-.807l.173.388c.099-.093.108-.217.036-.358-.037-.071-.075-.078-.209-.03zM6.826 12.691c-.06.004-.111.001-.16.012-.083.018-.165.046-.248.068a.065.065 0 0 1-.033-.003c-.065-.02-.107.01-.156.057.105.022.198.043.293.062.195.039.26 0 .304-.196zm10.95-8.921l.014-.015c-.04-.057-.078-.116-.121-.171-.06-.075-.14-.14-.18-.222-.033-.066-.03-.136-.129-.066-.003.002-.01.002-.015 0-.035-.01-.072-.046-.095.02-.01.032-.04.058-.057.08.228.09.405.233.583.374zM16.7 1.508c-.114.128-.06.676.082.838.05-.295.034-.562-.082-.838zm3.727 11.141l.031-.004.146-.34c.003-.008.002-.025-.004-.03-.087-.062-.153-.154-.273-.169-.046-.006-.07.007-.06.053.027.126.053.252.087.376.012.041.048.076.073.114zM6.74 12.103v-.026c-.037-.005-.074-.018-.109-.013-.223.028-.447.058-.67.09-.085.013-.1.055-.052.124.007.01.01.021.015.032l-.022-.012-.101.11.024.032c.315-.087.614-.213.915-.337zm8.393-1.75c-.016-.004-.038-.014-.057-.011a.076.076 0 0 0-.049.03c-.01.015-.015.043-.007.057.032.057.151.055.186-.001l.403-.66c.028-.046.082-.092.014-.15-.005-.004.005-.025.002-.036-.01-.03-.014-.075-.037-.088-.034-.02-.081-.02-.123-.028a18.69 18.69 0 0 1-.01.018l.093.098c-.08.016-.101.055-.066.127-.085.009-.11.058-.069.133-.081-.003-.109.041-.072.116-.088.012-.111.065-.06.138-.097.004-.121.044-.083.107-.028.023-.061.038-.074.064-.01.02.004.053.01.086zm2.282-7.505c.023.078-.063.178.05.235.008.003.013.025.01.035-.026.079.029.097.08.12.017.006.036.013.047.026.08.098.159.197.235.299.034.044.06.095.09.143.048.076.069.08.16.03-.176-.331-.328-.681-.672-.888zm-1.972 8.277l.033.016c.028-.032.062-.062.085-.097.149-.224.295-.449.442-.674.012-.02.033-.048.027-.063-.04-.088.025-.144.07-.202.049-.062.023-.096-.042-.136l-.018.029-.432.678c-.027.042-.064.078-.089.12-.02.033-.045.077-.036.108.024.08.054.154-.04.22zm3.772-2.287a.17.17 0 0 0 .094-.23c-.021-.042-.047-.083-.062-.127-.008-.023-.007-.06.007-.077.045-.052.033-.103.01-.153-.074-.154-.15-.307-.227-.459-.007-.013-.021-.023-.04-.043-.058.202-.08.392-.022.584.054.179.08.371.24.505zm.26 2.522c-.161-.032-.27.019-.299.16a4.19 4.19 0 0 0-.064.526c-.007.086.086.128.164.08.088-.054.173-.113.26-.17l.078-.053c-.032-.018-.053-.025-.069-.038-.023-.02-.043-.045-.065-.068.03-.006.06-.021.087-.017.052.008.077-.008.094-.054s-.01-.06-.042-.086c-.062-.05-.114-.112-.167-.17-.007-.009.002-.03.005-.045l.019-.065zM5.983 12.69c.027-.013.055-.036.084-.038.118-.01.229-.045.343-.07.066-.015.133-.014.193-.053.014-.009.041.005.062.002.07-.01.142-.02.212-.038.013-.003.023-.033.028-.053.017-.08.035-.16.047-.24.014-.092-.022-.117-.11-.08-.14.06-.277.125-.417.183-.128.053-.26.1-.388.151-.117.048-.14.152-.054.236zM20.838 9.97l-.019.014c.044.076.076.162.135.224.138.145.29.272.522.203.02-.006.048.005.065-.004.02-.011.048-.038.046-.053a8.676 8.676 0 0 0-.092-.48c-.022-.098-.103-.14-.2-.153-.084-.01-.098.006-.09.086.01.082.02.164.027.246.002.02-.003.039-.005.062l-.39-.145zm1.56 3.53c.108.095.212.193.324.282a.21.21 0 0 0 .262-.01c.126-.12.248-.247.36-.381.073-.088.025-.171-.09-.177a27.18 27.18 0 0 0-.441-.02c-.023 0-.053.001-.069.014-.112.092-.223.187-.346.292zm-.412-2.356l-.015.004c.03.137.057.274.09.41.04.163.142.252.286.254.133.002.314-.13.348-.256.004-.018-.002-.043-.01-.06-.11-.236-.294-.403-.512-.535-.1-.06-.169-.02-.181.094l-.006.09zm1.18.46c.118-.068.23-.127.34-.193.126-.075.163-.188.096-.32a4.172 4.172 0 0 0-.218-.377c-.023-.036-.078-.079-.112-.074-.035.005-.074.058-.092.1-.063.142-.117.288-.173.433-.007.019-.017.043-.01.059.052.12.108.24.168.371zm-2.79 1.674c-.007.011-.016.02-.022.032-.062.117-.129.231-.183.351-.072.16-.032.276.128.356.133.067.274.123.414.175.036.014.099.01.123-.013.025-.023.03-.082.022-.12-.04-.171-.087-.342-.135-.512a.133.133 0 0 0-.046-.068c-.096-.068-.195-.13-.3-.2zm1.128.042c.05-.005.111-.003.167-.02.034-.009.074-.04.085-.07.008-.024-.015-.07-.039-.092-.15-.133-.311-.257-.459-.394-.153-.143-.43-.133-.503.107-.039.127-.031.213.085.282.2.118.42.182.664.187zm-1.362-3.183c-.025.015-.046.022-.06.036a53.43 53.43 0 0 0-.425.395c-.122.115-.169.24-.044.384.008.01.012.023.018.035.056.12.076.13.213.097-.017-.016-.035-.028-.046-.044-.009-.014-.017-.038-.011-.049.008-.016.032-.037.046-.035.056.008.11.024.166.037.013.007.037-.01.037-.025-.004-.117.09-.153.164-.205.036-.026.08-.047.108-.081.023-.029.05-.082.04-.108-.062-.147-.134-.288-.206-.437zm2.64 2.196c.001-.118-.038-.152-.127-.142a.548.548 0 0 0-.055.01c-.22.047-.394.178-.574.295-.069.044-.098.121-.098.205.001.149.1.262.26.31.101.03.186.023.25-.064.09-.122.184-.242.26-.373.047-.082.064-.18.084-.24zM4.269 13.691h.007c.007.105.012.21.022.315.01.11.043.147.153.176.037.01.075.019.112.017.172-.01.345-.02.517-.037.03-.002.072-.027.08-.051.008-.023-.016-.063-.036-.086-.185-.213-.373-.424-.56-.635-.018-.02-.034-.051-.056-.055-.055-.01-.119-.025-.166-.007-.035.014-.064.075-.07.118-.01.08-.003.163-.003.245zm-1.88-1.327c.035.213.125.418.231.616.037.069.096.059.142-.015.149-.24.298-.48.445-.72.04-.065.053-.134.002-.2-.051-.065-.122-.08-.196-.053a15.18 15.18 0 0 0-.52.197c-.071.03-.102.09-.104.175zm7.21-.322c.095.104.194.19.263.294.073.11.17.143.289.15l1.23.078c.04.002.08.01.09-.05.01-.051.008-.085-.052-.102-.022-.006-.05-.032-.053-.052-.012-.073-.054-.077-.116-.068-.22.03-.439.034-.648-.06-.018-.007-.052-.005-.065.007-.067.061-.113.024-.165-.022-.073-.065-.124-.158-.232-.182-.077-.017-.154-.058-.23-.056-.099.003-.197.038-.311.063zm4.48-3.045c-.037-.034-.053-.053-.073-.066a10.147 10.147 0 0 0-.209-.144c-.005-.003-.017-.003-.023.001-.057.038-.103.003-.152-.019-.098-.044-.195-.093-.295-.133a.119.119 0 0 0-.093.004c-.146.092-.288.19-.433.285-.052.035-.062.065-.013.113.032.03.05.076.081.108.042.042.084.095.136.112.064.022.139.01.209.016.146.011.285.039.374.173.01.015.047.013.072.019.004-.021.02-.048.012-.063-.043-.087-.013-.14.07-.181.014-.007.018-.042.018-.065.002-.028-.015-.079-.007-.082a.255.255 0 0 1 .106-.016c.03 0 .058.013.101.024l-.025-.072.143-.014zm8.788 4.092c.127.006.259.008.39.018.172.014.314-.02.374-.203.005-.017.023-.03.034-.045.039-.058.03-.1-.037-.125-.066-.025-.139-.033-.205-.057-.028-.01-.047-.041-.07-.063.03-.012.06-.034.089-.034.085 0 .17.01.254.015.068.004.08-.02.052-.082-.036-.08-.059-.163.005-.247a.235.235 0 0 0 .052-.13c0-.158-.003-.319-.022-.476-.016-.136-.133-.18-.253-.106-.094.058-.185.12-.28.176-.05.028-.064.06-.056.117.04.257.015.512-.082.753-.066.164-.158.318-.245.489zm-6.585-2.743c-.032.032-.057.062-.086.086-.035.03-.084.047-.109.082-.206.294-.406.594-.614.887-.05.068-.127.118-.19.177-.014.013-.025.03-.035.047-.052.081-.024.222-.18.227-.012 0-.027.03-.034.049-.026.068-.076.097-.148.103-.084.007-.17.012-.25.034a.32.32 0 0 0-.145.089c-.042.047-.068.11-.097.168-.032.065-.054.135-.093.196-.016.027-.06.043-.095.05-.032.008-.07-.003-.104-.002-.129.003-.257.013-.386.011-.06 0-.109.008-.156.048a.156.156 0 0 1-.1.035 27.772 27.772 0 0 1-.745-.06.146.146 0 0 1-.087-.048c-.046-.053-.085-.037-.128-.002.049.094.118.125.225.127.368.007.736.036 1.104.041.412.005.763-.147 1.061-.425.27-.252.547-.498.817-.75.158-.148.314-.3.462-.458.172-.185.222-.514.113-.712zm4.537 3.234l.167.563c.03.104.106.161.212.17.457.041.894-.03 1.305-.233.135-.067.143-.193.026-.287-.081-.066-.165-.129-.244-.197-.036-.031-.065-.031-.109-.013a1.737 1.737 0 0 1-1.007.09c-.11-.023-.219-.058-.35-.093zM22.9 11.1c.074-.193.143-.368.208-.544.034-.091.008-.172-.064-.236a2.342 2.342 0 0 0-1.224-.558c-.13-.02-.215.078-.184.2.033.13.073.257.102.387.015.068.052.094.12.106.343.064.632.223.873.464.053.053.102.108.169.18zm-3.28.92c-.113.073-.213.144-.319.205-.134.078-.168.186-.133.328.102.413.308.77.605 1.078.103.107.232.08.288-.056.054-.131.106-.263.155-.396.009-.026.009-.067-.007-.086a1.652 1.652 0 0 1-.355-.832c-.002-.017-.027-.045-.04-.045-.134.009-.165-.082-.195-.195zm-16.36.294c-.019.02-.029.028-.036.039-.117.188-.229.38-.353.564-.107.158-.153.307.001.46.004.003.005.009.008.014.046.085.086.1.165.044.055-.04.099-.095.153-.136.02-.015.057-.01.086-.013-.003.026.002.058-.01.078-.018.028-.055.045-.073.072a.758.758 0 0 0-.094.17c-.004.01.062.045.096.068l.074.05c.216.154.453.27.712.339.111.03.158-.005.148-.113-.023-.247-.045-.495-.073-.742A.127.127 0 0 0 4 13.122c-.346-.163-.594-.41-.72-.763-.004-.012-.01-.023-.022-.045zm1.348.959c.014.024.02.039.03.05.194.221.39.441.583.663.074.085.168.11.268.067.146-.063.29-.135.429-.212.04-.022.06-.078.093-.113a.543.543 0 0 1 .107-.088c.044-.027.106-.034.14-.068.112-.116.22-.235.321-.361.065-.082.032-.15-.071-.173-.215-.047-.428-.102-.645-.135-.085-.013-.18.025-.27.042-.039.007-.078.017-.116.027-.025.006-.051.01-.072.023-.205.121-.414.234-.658.261l-.14.017zm-.683-2.514c-.031-.014-.045-.022-.06-.026-.285-.068-.57-.142-.857-.203-.203-.044-.273-.008-.38.17a2.264 2.264 0 0 0-.295.785c-.026.152-.029.31-.03.465 0 .101.054.13.153.103a.676.676 0 0 0 .083-.03c.198-.085.395-.172.594-.254.059-.024.086-.057.1-.119.082-.333.246-.614.545-.806.042-.027.087-.05.147-.085zm12.71-.937c-.07.08-.074.085-.036.136.155.212.2.453.198.707-.004.268-.084.513-.279.7-.465.449-.936.892-1.416 1.326-.176.16-.393.267-.622.347-.31.108-.628.12-.95.103-1.034-.052-2.068-.104-3.102-.162a2.952 2.952 0 0 1-.906-.188c-.078-.03-.132-.005-.17.07-.044.092-.09.117-.17.095-.086-.025-.118-.082-.108-.18.005-.05.024-.113-.047-.136-.085-.027-.173-.046-.26-.07-.1-.027-.21.005-.309-.041-.055-.026-.072.009-.082.06a3.583 3.583 0 0 1-.706 1.552A3.917 3.917 0 0 1 6.396 15.2c-.043.022-.083.048-.125.073a.287.287 0 0 0 .113.015c.258-.009.516-.02.775-.026.577-.012 1.153-.023 1.73-.032.426-.007.851-.016 1.277-.015 2.063.002 4.125.004 6.187.01.714.003 1.429.02 2.143.031l1.22.021c.054.001.108.007.162.008h.29l.011-.02c-.809-.331-1.42-.866-1.833-1.629-.417-.766-.48-1.57-.328-2.414l-.27.227-.024-.024c.204-.897.602-1.694 1.28-2.334-.026-.048-.072-.093-.066-.13.01-.076-.053-.164.03-.232.006-.005-.004-.034-.012-.05-.148-.286-.202-.584-.115-.899.005-.018.005-.038.01-.073-.227.135-.439.26-.648.388-.014.009-.014.042-.017.064-.005.03.003.067-.012.09-.063.102-.142.195-.197.3-.266.509-.527 1.02-.79 1.53-.013.027-.029.053-.05.091l-.501-.348zm.637-4.573c-.01-.07-.01-.13-.027-.185-.006-.02-.053-.05-.072-.044-.076.022-.076-.041-.1-.076-.025-.037-.02-.061.011-.102.036-.048.067-.127.051-.178-.057-.187-.134-.367-.205-.55-.15.084-.243.025-.246-.165 0-.077.03-.154.048-.231.005-.021.014-.04.014-.066-.068.047-.158.059-.167.172-.009.114-.16.15-.247.071a.128.128 0 0 0-.054-.03c-.094-.02-.189-.035-.281-.06-.05-.013-.095-.044-.142-.068-.064-.032-.12-.01-.175.022-.078.045-.23.029-.28-.043-.028-.04-.048-.107-.035-.152.024-.082.1-.127.186-.148.075-.018.152-.032.227-.053.077-.023.12-.076.124-.163-.085 0-.169-.01-.248.003-.103.017-.264-.054-.303-.15a.164.164 0 0 1 .053-.2c.08-.055.163-.091.272-.06.08.024.17.016.256.019.014 0 .031-.01.04-.022.05-.059.1-.118.146-.18.05-.066.162-.09.226-.038.036.03.063.03.1.009a.128.128 0 0 1 .053-.017c.118-.007.175-.064.145-.174-.032-.115-.054-.235-.147-.329-.055-.055-.091-.13-.13-.2-.027-.05-.061-.07-.12-.07-.14.002-.171-.026-.204-.16a2.862 2.862 0 0 1-.063-.742c.003-.123.024-.144.166-.183L16.13.609c-.015-.157-.031-.315-.044-.473-.006-.075.03-.11.11-.124.211-.037.394.01.544.157.09.087.174.181.243.284.11.166.094.346.029.527a.734.734 0 0 0-.039.165c-.014.126-.005.257-.038.378-.062.231.02.455.016.683-.002.082.044.17.081.248.014.028.065.047.102.055.12.025.215.076.29.18.063.086.156.152.24.22.262.21.464.464.609.763.01.021.046.043.071.044.1.007.199.008.297.003.026 0 .058-.025.074-.048.099-.141.195-.285.291-.429.06-.087.061-.086.152-.04.425.217.692.57.889.984.039.082.036.083-.006.16l.353.411.049.053c.03.036.06.073-.011.085.1.164.203.322.297.485.091.16.125.335.112.52-.013.19-.013.38-.022.571-.007.135-.073.188-.237.197-.038.003-.077-.005-.113.002-.032.006-.061.027-.093.039a.12.12 0 0 1-.057.01c-.073-.012-.145-.035-.22-.043a4.147 4.147 0 0 0-.345-.018c-.021 0-.05.02-.062.04-.052.08-.056.081-.131.014-.01-.007-.023-.01-.05-.02.02.092.03.174.054.253.02.064.007.107-.05.141-.01.007-.023.014-.032.023-.09.086-.09.086-.032.203l.35.706c.035.07.074.138.172.128a.038.038 0 0 1 .03.012c.057.078.112.04.169 0a.836.836 0 0 1 .59-.161c.532.045 1.066.074 1.58.23.461.14.907.312 1.282.624.023.02.056.03.084.043l-.03.05-.68-.083-.01.018c.02.013.038.028.059.038 1.097.56 1.746 1.435 1.916 2.64.076.54.04 1.071-.152 1.588-.35.943-1.017 1.6-1.919 2.042-.136.067-.284.113-.438.173.78.05 1.552.062 2.31.199l.007.046c-.036.016-.07.041-.106.046-.22.03-.438.066-.658.08-.659.044-1.318.081-1.977.116a55.11 55.11 0 0 1-1.212.046 234.127 234.127 0 0 1-5.176.097c-1.623.005-3.247.009-4.87.01-.456 0-.912-.009-1.368-.015a199.154 199.154 0 0 1-4.253-.096c-.498-.017-.997-.033-1.494-.064-.624-.038-1.247-.09-1.87-.14-.078-.006-.154-.025-.23-.042-.027-.006-.05-.023-.075-.034l-.001-.025c.04-.016.078-.041.12-.047.248-.031.497-.064.746-.086.317-.027.634-.044.952-.065.01-.001.018-.006.047-.015-1.39-.588-2.235-1.588-2.433-3.055a3.478 3.478 0 0 1 .572-2.44c.592-.896 1.442-1.431 2.506-1.623 1.066-.192 2.033.08 2.937.692-.05-.095-.092-.167-.128-.242-.035-.075-.066-.152-.098-.228l.02-.014c.02.009.042.016.061.027.474.29.953.572 1.38.927.148.123.281.263.418.398a.307.307 0 0 0 .231.093c.057 0 .114.023.171.038.028.007.054.018.092.032l-.008-.057c-.01-.075.037-.119.112-.093.078.027.154.062.23.098.039.019.065.023.095-.018.03-.04.016-.064-.014-.094-.043-.044-.09-.087-.12-.138-.026-.042-.048-.1-.038-.143.006-.027.075-.04.12-.061-.073-.04-.13-.118-.245-.1-.045.007-.103-.025-.147-.052-.294-.181-.585-.37-.88-.55-.44-.272-.89-.531-1.323-.812-.345-.223-.67-.472-1.007-.706-.374-.26-.75-.518-1.127-.774a.247.247 0 0 0-.133-.041c-.488.007-.976.017-1.464.03a.31.31 0 0 0-.135.041c-.096.054-.197.104-.28.173-.184.153-.413.233-.605.372-.029.02-.067.048-.073.078-.052.247-.213.434-.373.613-.247.277-.468.573-.692.868-.211.277-.44.542-.667.807-.063.073-.15.128-.228.189-.016.012-.04.014-.06.02L0 9.61c.035-.06.064-.126.105-.181a.234.234 0 0 0 .021-.272c-.036-.07-.003-.13.092-.173l-.026.085c.155-.012.187-.143.245-.248.16-.294.326-.585.475-.884.066-.132.087-.283.147-.418.05-.114.11-.23.193-.322.106-.115.129-.234.022-.351-.014-.016-.048-.018-.073-.02-.104-.011-.209-.015-.312-.03-.079-.01-.125-.054-.118-.141.006-.087.006-.174.006-.262 0-.046.022-.066.069-.068.12-.005.242-.009.363-.02.046-.004.102-.014.133-.043.137-.13.298-.11.464-.092.073.008.151.012.22-.006.282-.072.562-.15.841-.233.088-.026.17-.071.264-.111-.112-.092-.221-.176-.325-.267a1.668 1.668 0 0 1-.21-.212c-.118-.148-.226-.303-.336-.457a.77.77 0 0 1-.07-.133c-.008-.017-.012-.047-.002-.057.01-.01.04-.01.059-.006.133.034.265.07.398.105.02.005.04.005.064.009-.056-.158-.016-.203.154-.185.024.003.05.002.073.009.12.034.227.052.329-.065.036-.042.152-.036.228-.024.317.049.632.11.948.164.567.096 1.138.153 1.713.176.024.001.048.004.072.004.32.004.59.107.85.307.877.677 1.887.981 3.002.942a3.4 3.4 0 0 0 .441-.052c.116-.02.23-.053.334.054.016-.035.027-.055.034-.076.03-.085.063-.17.088-.256.081-.288.256-.511.487-.702a7.572 7.572 0 0 1 2.249-1.295c.195-.071.39-.049.583-.027.321.035.64.09.96.134a.446.446 0 0 1 .24.12c.057.05.125.092.195.12.177.072.36.13.537.201.05.02.1.057.13.099.113.158.218.321.327.482.013.019.03.04.05.05.174.088.35.174.539.267z"/>
    </g>
</svg>
