<svg xmlns="http://www.w3.org/2000/svg" width="60" height="60" viewBox="0 0 60 60">
    <g fill="none" fill-rule="nonzero">
        <path stroke="gray" stroke-linecap="round" stroke-linejoin="round" stroke-width="3" d="M21 24.303c-.322-6.577 2.509-9.865 8.492-9.865 8.975 0 8.304 6.235 8.304 9.505 0 3.27-3.558 4.192-5.426 6.06-2.373 2.373-2.878 5.557-2.878 8.562"/>
        <rect width="4" height="4" x="28" y="43" fill="gray" rx="2"/>
        <path fill="gray" d="M30 60c16.542 0 30-13.458 30-30S46.542 0 30 0 0 13.458 0 30s13.458 30 30 30zm0-57.002C44.89 2.998 57.002 15.11 57.002 30c0 14.89-12.112 27.002-27.002 27.002C15.11 57.002 2.998 44.89 2.998 30 2.998 15.11 15.11 2.998 30 2.998z"/>
    </g>
</svg>
