<svg xmlns="http://www.w3.org/2000/svg" width="18" height="19" viewBox="0 0 18 19">
    <path fill="gray" fill-rule="evenodd" d="M13.215 13.03c2.879-2.965 2.797-7.44.029-10.513C10.476-.556 5.834-.855 2.711 1.84-.41 4.535-.906 9.267 1.588 12.577c2.494 3.31 7.191 3.423 10.277 1.849l4.19 4.287c.263.25.896.307 1.269 0 .373-.308.245-1.21 0-1.479l-4.11-4.205zM1.383 7.852c0-3.396 2.818-6.15 6.294-6.15 3.476 0 6.294 2.754 6.294 6.15 0 3.396-2.818 6.15-6.294 6.15-3.476 0-6.294-2.754-6.294-6.15z"/>
</svg>
