<svg xmlns="http://www.w3.org/2000/svg" width="31" height="26" viewBox="0 0 31 26">
    <path fill="gray" fill-rule="nonzero" d="M9.956 25.103c11.394 0 17.626-9.553 17.626-17.837 0-.271 0-.541-.018-.81a12.689 12.689 0 0 0 3.09-3.245c-1.13.507-2.33.84-3.558.986A6.278 6.278 0 0 0 29.82.73a12.325 12.325 0 0 1-3.934 1.521 6.147 6.147 0 0 0-7.442-1.233c-2.472 1.338-3.748 4.188-3.115 6.951a17.518 17.518 0 0 1-12.766-6.55C.918 4.284 1.758 7.95 4.48 9.788a6.093 6.093 0 0 1-2.811-.785v.08c0 2.984 2.08 5.554 4.97 6.145a6.114 6.114 0 0 1-2.797.107c.811 2.554 3.137 4.304 5.787 4.354a12.336 12.336 0 0 1-9.168 2.598 17.386 17.386 0 0 0 9.495 2.811"/>
</svg>
