<svg xmlns="http://www.w3.org/2000/svg" width="30" height="30" viewBox="0 0 30 30">
    <path fill="gray" fill-rule="evenodd" d="M25.686 4.28A14.425 14.425 0 0 0 15.382 0C7.354 0 .815 6.547.808 14.583c0 2.574.671 5.078 1.943 7.295L.69 29.438l7.726-2.028a14.566 14.566 0 0 0 6.966 1.777h.007c8.027 0 14.566-6.547 14.573-14.59A14.54 14.54 0 0 0 25.686 4.28zM15.382 26.718c-2.18 0-4.31-.588-6.17-1.693l-.44-.266-4.582 1.203 1.222-4.476-.286-.462a12.081 12.081 0 0 1-1.851-6.448c0-6.673 5.435-12.114 12.114-12.114a12.05 12.05 0 0 1 8.565 3.553 12.07 12.07 0 0 1 3.542 8.575c-.007 6.693-5.443 12.128-12.114 12.128zm6.643-9.079c-.363-.182-2.151-1.063-2.487-1.189-.335-.119-.58-.182-.817.182-.245.364-.943 1.19-1.153 1.427-.21.245-.426.273-.79.09-.362-.181-1.536-.566-2.926-1.81-1.083-.966-1.81-2.162-2.026-2.526-.21-.363-.021-.559.16-.74.161-.162.364-.428.545-.637.182-.21.245-.364.363-.609.12-.245.063-.454-.027-.636-.091-.182-.818-1.98-1.125-2.707-.294-.713-.594-.616-.818-.623-.21-.014-.454-.014-.698-.014-.245 0-.636.091-.971.455-.336.364-1.272 1.245-1.272 3.043 0 1.797 1.307 3.525 1.488 3.77.182.244 2.564 3.923 6.218 5.504a20.03 20.03 0 0 0 2.075.77c.873.279 1.663.237 2.291.146.699-.105 2.152-.881 2.46-1.735.3-.853.3-1.58.209-1.734-.09-.154-.335-.245-.699-.427z"/>
</svg>
